<svg xmlns="http://www.w3.org/2000/svg" viewBox="0 0 64 64">
  <rect width="64" height="64" rx="12" fill="#1b140d"/>
  <path d="M22 30a8 8 0 1 1-3-15 9 9 0 0 1 26 0 8 8 0 1 1-3 15z" fill="#f2b24c"/>
  <path d="M22 30h20v12a4 4 0 0 1-4 4H26a4 4 0 0 1-4-4z" fill="#f0683a"/>
  <rect x="26" y="34" width="2.5" height="10" rx="1" fill="#2a1206" opacity="0.5"/>
  <rect x="31" y="34" width="2.5" height="10" rx="1" fill="#2a1206" opacity="0.5"/>
  <rect x="36" y="34" width="2.5" height="10" rx="1" fill="#2a1206" opacity="0.5"/>
</svg>
